<svg xmlns="http://www.w3.org/2000/svg" xmlns:xlink="http://www.w3.org/1999/xlink" width="728" height="808" viewBox="0 0 728 808"><defs><path id="a" d="M0 254.77h296.603V0H0z"/></defs><g fill="none" fill-rule="evenodd"><path fill="#F0F1F5" d="M0 808h728V0H0z"/><path fill="#F3BB57" d="M0 0v66.719c73.275-2.968 147.062-.724 219.557 6.751 20.967 2.162 43.06 5.146 58.508 14.52 4.734 2.873 8.884 6.662 8.58 10.845-.878 12.073-32.505 12.287-40.029 23.362-3.926 5.778.582 12.787 8.047 16.873 7.465 4.086 17.234 5.894 26.721 7.478 146.253 24.417 303.32 20.127 446.616-10.503V0H0z"/><path fill="#1BBC84" d="M728 588c-51.471 1.873-102.862 7.267-154.14 10.988-11.35.824-25.737 3.679-26.349 11.232-.457 5.631 7.536 9.769 14.666 12.851l52.986 22.894c5.997 2.591 12.617 5.846 13.156 10.575.768 6.75-10.897 10.84-20.767 12.596-87.065 15.492-181.038-7.664-269.132 5.023-14.217 2.048-31.487 8.606-27.938 17.952 2.924 7.702 18.306 10.305 23.736 17.386 8.22 10.72-10.677 21.715-27.53 26.184-37.323 9.896-77.796 13.015-117.606 16.717A3492.75 3492.75 0 0 0 0 775.191v32.584h728V588z"/><g transform="translate(216 231.015)"><path fill="#1BBC84" d="M86.22 57.33c0 13.446-10.812 24.344-24.147 24.344-13.337 0-24.149-10.898-24.149-24.344 0-13.444 10.812-24.343 24.15-24.343 13.334 0 24.146 10.899 24.146 24.343m89.305 0c0 13.446-10.812 24.344-24.148 24.344s-24.148-10.898-24.148-24.344c0-13.444 10.812-24.343 24.148-24.343s24.148 10.899 24.148 24.343"/><path fill="#F3BB57" d="M223.766 125.128V137.3c0 24.066-25.95 43.577-49.823 43.577v.013a13.177 13.177 0 0 0-.566-.013H125.66c-9.342 0-16.914 7.634-16.915 17.052v55.41h73.892V208.22c0-4.685 3.031-8.815 7.471-10.2 25.713-8.012 44.446-32.203 44.446-60.72v-12.173h-10.787z"/><mask id="b" fill="#fff"><use xlink:href="#a"/></mask><path fill="#F3BB57" d="M126.595 175.882h40.568v-4.852h-40.568z" mask="url(#b)"/><path stroke="#1D2235" stroke-linecap="round" stroke-linejoin="round" stroke-width="2.843" d="M149.199 175.436h-5.696m-7.796 0h-10.048c-9.343 0-16.915 7.634-16.916 17.051v60.85h73.894V202.78c0-4.684 3.03-8.816 7.47-10.199 25.713-8.012 44.447-32.203 44.447-60.721v-12.173h-10.787v12.173c0 24.066-25.952 43.576-49.825 43.576v.015a10.57 10.57 0 0 0-.565-.015h-2.615M156.878 51.89l-7.405 7.465-7.406-7.465m22.217-7.466l-7.405 7.465" mask="url(#b)"/><path stroke="#1D2235" stroke-linecap="round" stroke-linejoin="round" stroke-width="2.843" d="M177.324 51.89c0 13.444-10.812 24.343-24.148 24.343s-24.148-10.899-24.148-24.343c0-13.446 10.812-24.344 24.148-24.344s24.148 10.898 24.148 24.344zm-109.75 0l-7.405 7.465-7.406-7.465m22.216-7.466l-7.405 7.465" mask="url(#b)"/><path stroke="#1D2235" stroke-linecap="round" stroke-linejoin="round" stroke-width="2.843" d="M88.019 51.89c0 13.444-10.812 24.343-24.147 24.343-13.337 0-24.148-10.899-24.148-24.343 0-13.446 10.811-24.344 24.148-24.344 13.335 0 24.147 10.898 24.147 24.344z" mask="url(#b)"/><path fill="#F00" d="M266.627 51.89c0 13.444-10.81 24.343-24.147 24.343-13.336 0-24.148-10.899-24.148-24.343 0-13.446 10.812-24.344 24.148-24.344s24.147 10.898 24.147 24.344" mask="url(#b)"/><path stroke="#F00" stroke-linecap="round" stroke-linejoin="round" stroke-width="2.843" d="M266.627 51.89c0 13.444-10.81 24.343-24.147 24.343-13.336 0-24.148-10.899-24.148-24.343 0-13.446 10.812-24.344 24.148-24.344s24.147 10.898 24.147 24.344z" mask="url(#b)"/><path fill="#FFF" d="M242.48 55.27c3.309 0 3.836-9.613 3.836-9.71 0-2.133-1.721-3.868-3.836-3.868-2.115 0-3.836 1.735-3.836 3.867 0 .098.528 9.71 3.836 9.71m0 2.387c-1.483 0-2.69 1.216-2.69 2.712 0 1.495 1.207 2.71 2.69 2.71 1.483 0 2.689-1.215 2.689-2.71 0-1.496-1.206-2.712-2.69-2.712" mask="url(#b)"/><path stroke="#1D2235" stroke-linecap="round" stroke-linejoin="round" stroke-width="2.843" d="M118.886 251.877v-38.859m0 0c0-3.434 3.598-3.434 3.598-6.87 0-3.435-3.598-3.435-3.598-6.87m50.985-50.868l-3.364-4.038v-7.363c0-8.674-6.82-15.931-15.423-16.076-8.788-.148-15.96 6.99-15.96 15.817v30.652h31.383v-14.267l2.469-1.03c1.46-.61 1.912-2.475.895-3.694z" mask="url(#b)"/><path fill="#1D2235" d="M163.475 142.306c0 .936-.753 1.694-1.682 1.694-.928 0-1.68-.758-1.68-1.694 0-.937.752-1.696 1.68-1.696.93 0 1.682.759 1.682 1.696" mask="url(#b)"/><path stroke="#1D2235" stroke-linecap="round" stroke-linejoin="round" stroke-width="2.843" d="M157.225 137.883c2.523-1.87 6.613-1.87 9.137 0M71.424 253.338h153.754m-54.417-77.902v-8.034h-40.568v8.034" mask="url(#b)"/><path fill="#1D2235" d="M166.673 114.844c.56-2.193.868-4.58.868-7.083 0 4.369-5.526 7.91-12.343 7.91h-11.924c-7.09 0-12.839 5.794-12.839 12.943v26.25h5.25c1.703 0 3.083-1.39 3.083-3.107v-5.59c-1.8-.46-3.074-4.682-2.72-6.707.258-1.477 1.423-2.677 2.883-2.964 2.36-.463 4.426 1.345 4.426 3.64h4.222v-9.448c0-2.041 1.641-3.694 3.665-3.694h6.938c10.535 0 19.076-8.61 19.076-19.233 0 3.103-4.312 5.787-10.585 7.083" mask="url(#b)"/><path stroke="#1D2235" stroke-linecap="round" stroke-linejoin="round" stroke-width="2.843" d="M166.673 114.844c.56-2.193.868-4.58.868-7.083 0 4.369-5.526 7.91-12.343 7.91h-11.924c-7.09 0-12.839 5.794-12.839 12.943v26.25h5.25c1.703 0 3.083-1.39 3.083-3.107v-5.59c-1.8-.46-3.074-4.682-2.72-6.707.258-1.477 1.423-2.677 2.883-2.964 2.36-.463 4.426 1.345 4.426 3.64h4.222v-9.448c0-2.041 1.641-3.694 3.665-3.694h6.938c10.535 0 19.076-8.61 19.076-19.233 0 3.103-4.312 5.787-10.585 7.083zm-7.666 42.374a3.324 3.324 0 0 0 3.061 2.045h4.346m61.846-58.807c0-2.938 2.361-5.32 5.275-5.32m-5.275 5.32c0-2.938 2.361-5.32 5.275-5.32m-9.769 1.227c0-6.12 2.362-11.081 5.276-11.081m3.71 19.265c0-2.937 2.362-5.319 5.276-5.319m-.782 9.412c0-2.939 2.362-5.32 5.276-5.32" mask="url(#b)"/><path stroke="#1D2235" stroke-linecap="round" stroke-linejoin="round" stroke-width="2.843" d="M237.246 108.64v7.67c0 1.865-1.5 3.376-3.35 3.376h-10.13V96.363c0-6.12 2.363-11.082 5.277-11.082" mask="url(#b)"/><path stroke="#F00" stroke-linecap="round" stroke-linejoin="round" stroke-width="2.843" d="M242.48 14.489V1.434m37.099 50.456h12.95m-100.098 0h12.95m63.331-26.446l9.157-9.232M207.09 87.568l9.157-9.232m52.465 0l9.157 9.231M207.09 16.212l9.157 9.232" mask="url(#b)"/><path stroke="#F00" stroke-dasharray="3.885,5.18" stroke-linecap="round" stroke-linejoin="round" stroke-width="2.843" d="M258.603 12.648l-4.172 10.154m16.901 41.136l10.072 4.206m-77.849-32.509l10.072 4.206m40.804 41.136l4.172 10.154m-32.246-78.483l4.172 10.154m40.803 17.039l10.072-4.206m-77.849 32.509l10.072-4.206" mask="url(#b)"/><path stroke="#1D2235" stroke-linecap="round" stroke-linejoin="round" stroke-width="2.843" d="M1.421 253.338h7.157m10.832 0h7.159m10.831 0h7.158m250.623 0h-7.157m-10.832 0h-7.157m-10.832 0h-7.158m-10.675 0H55.233" mask="url(#b)"/></g></g></svg>