<?xml version="1.0" standalone="no"?>
<!DOCTYPE svg PUBLIC "-//W3C//DTD SVG 20010904//EN"
 "http://www.w3.org/TR/2001/REC-SVG-20010904/DTD/svg10.dtd">
<svg version="1.0" xmlns="http://www.w3.org/2000/svg"
 width="260.000000pt" height="260.000000pt" viewBox="0 0 260.000000 260.000000"
 preserveAspectRatio="xMidYMid meet">
<metadata>
Created by potrace 1.11, written by Peter Selinger 2001-2013
</metadata>
<g transform="translate(0.000000,260.000000) scale(0.100000,-0.100000)"
fill="#000000" stroke="none">
<path d="M1246 1909 c-297 -43 -640 -228 -907 -489 -111 -108 -110 -115 19
-240 304 -292 692 -478 1003 -480 66 0 78 3 96 22 25 27 29 44 20 80 -11 43
-32 51 -171 63 -130 11 -297 64 -436 138 -139 75 -408 275 -409 304 -1 17 166
155 274 226 107 70 263 147 360 176 61 19 225 52 243 50 81 -12 146 24 144 82
-1 54 -38 79 -115 78 -34 -1 -89 -5 -121 -10z"/>
<path d="M1645 1896 c-35 -35 -34 -87 2 -116 25 -20 38 -21 126 -18 91 3 100
5 118 28 14 18 18 35 15 59 -9 57 -25 66 -136 69 -95 4 -100 3 -125 -22z"/>
<path d="M1365 1654 c-112 -26 -186 -70 -238 -141 -51 -71 -71 -141 -64 -228
6 -84 32 -145 88 -209 68 -77 215 -132 283 -106 29 11 56 62 49 91 -8 30 -46
57 -88 62 -60 8 -87 21 -123 58 -107 110 -38 292 119 312 77 9 110 57 82 115
-17 35 -66 56 -108 46z"/>
<path d="M1662 1647 c-32 -15 -50 -58 -40 -95 12 -46 51 -60 157 -57 78 2 86
4 108 29 29 34 29 68 0 102 -23 26 -29 27 -115 28 -50 1 -100 -3 -110 -7z"/>
<path d="M2090 1643 c-51 -21 -64 -76 -27 -119 23 -26 29 -28 108 -29 127 -3
159 15 159 84 0 34 -29 70 -57 72 -80 5 -160 2 -183 -8z"/>
<path d="M1663 1380 c-27 -11 -50 -57 -45 -87 7 -46 46 -63 146 -63 65 0 98 4
113 15 44 31 37 111 -13 134 -29 13 -169 14 -201 1z"/>
<path d="M2075 1367 c-38 -32 -42 -78 -8 -111 21 -21 35 -25 99 -28 128 -5
163 12 164 83 0 59 -25 73 -134 77 -86 4 -95 2 -121 -21z"/>
<path d="M1655 1105 c-38 -26 -46 -79 -17 -115 18 -22 28 -24 116 -26 90 -2
98 -1 126 23 21 17 30 34 30 54 0 38 -40 79 -77 80 -15 0 -55 1 -88 2 -45 2
-67 -3 -90 -18z"/>
<path d="M2134 1124 c-5 -1 -21 -5 -36 -8 -34 -8 -61 -55 -52 -91 12 -49 45
-63 144 -63 109 1 140 17 140 74 0 69 -15 79 -136 87 -27 2 -54 2 -60 1z"/>
<path d="M1662 846 c-29 -16 -40 -32 -42 -57 -3 -37 -1 -44 20 -67 19 -20 31
-22 125 -22 100 0 104 1 124 26 27 35 26 67 -3 101 -23 26 -28 27 -115 28 -50
0 -99 -4 -109 -9z"/>
</g>
</svg>
